<?xml version="1.0" encoding="UTF-8" standalone="no"?>
<svg
   xmlns:dc="http://purl.org/dc/elements/1.1/"
   xmlns:cc="http://creativecommons.org/ns#"
   xmlns:rdf="http://www.w3.org/1999/02/22-rdf-syntax-ns#"
   xmlns:svg="http://www.w3.org/2000/svg"
   xmlns="http://www.w3.org/2000/svg"
   xmlns:sodipodi="http://sodipodi.sourceforge.net/DTD/sodipodi-0.dtd"
   xmlns:inkscape="http://www.inkscape.org/namespaces/inkscape"
   id="a"
   data-name="Layer 2"
   viewBox="0 0 255 259"
   version="1.1"
   sodipodi:docname="acoustic_image_view_icon.svg"
   inkscape:version="0.92.3 (2405546, 2018-03-11)">
  <metadata
     id="metadata17">
    <rdf:RDF>
      <cc:Work
         rdf:about="">
        <dc:format>image/svg+xml</dc:format>
        <dc:type
           rdf:resource="http://purl.org/dc/dcmitype/StillImage" />
      </cc:Work>
    </rdf:RDF>
  </metadata>
  <defs
     id="defs15" />
  <sodipodi:namedview
     pagecolor="#ffffff"
     bordercolor="#666666"
     borderopacity="1"
     objecttolerance="10"
     gridtolerance="10"
     guidetolerance="10"
     inkscape:pageopacity="0"
     inkscape:pageshadow="2"
     inkscape:window-width="1853"
     inkscape:window-height="1025"
     id="namedview13"
     showgrid="false"
     inkscape:zoom="1.8223938"
     inkscape:cx="178.07733"
     inkscape:cy="161.70516"
     inkscape:window-x="67"
     inkscape:window-y="27"
     inkscape:window-maximized="1"
     inkscape:current-layer="a" />
  <path
     style="fill:#c43737;fill-opacity:1"
     d="M 153.86133 24.210938 A 36.372707 36.372707 0 0 1 127 36.123047 A 36.372707 36.372707 0 0 1 100.25391 24.347656 L 0.5 116.08984 L 0.5 195.00391 A 233.20987 233.20987 0 0 0 128.95117 233.75781 A 233.20987 233.20987 0 0 0 254.75 196.9043 L 254.75 116.08984 L 153.86133 24.210938 z "
     id="polygon2" />
  <path
     d="M 0.49804688 152.14844 L 0.49804688 206.19727 A 244.81956 244.81956 0 0 0 128.40234 242.625 A 244.81956 244.81956 0 0 0 254.75 207.21484 L 254.75 177.27734 C 254.75 177.27734 241.02481 186.86872 235.50781 188.51172 C 230.45081 190.01772 219.91619 188.83805 214.74219 189.87305 C 207.93319 191.23505 201.7067 186.93152 197.7207 186.97852 C 186.3897 187.11352 167.51245 198.60945 156.18945 199.06445 C 153.13645 199.18745 147.30944 196.6838 144.27344 196.3418 C 141.31344 196.0078 132.31984 194.98191 129.46484 194.12891 C 120.10184 191.33091 109.04452 177.8597 99.353516 176.5957 C 71.949516 173.0217 64.442203 175.74441 48.783203 173.19141 C 40.092203 171.77441 25.141891 155.32144 16.337891 155.14844 C 7.6568906 154.97844 0.49804687 152.14844 0.49804688 152.14844 z "
     id="path4" />
  <path
     d="M.5,166.213s11.308,.477,15.093,1.532c8.717,2.43,20.651,15.298,29.266,18.066,13.492,4.335,44.446,1.766,58.223,5.083,13.353,3.215,13.957,16.681,50.723,21.106,11.502,1.385,38.638-2.723,45.277-9.872,1.829-1.969,7.866,2.063,10.553,2.043,11.619-.089,45.114-9.532,45.114-9.532v-17.362s-13.725,9.591-19.242,11.234c-5.057,1.506-15.592,.327-20.766,1.362-6.809,1.362-13.035-2.941-17.021-2.894-11.331,.135-30.209,11.63-41.532,12.085-3.053,.123-8.879-2.381-11.915-2.723-2.96-.334-11.954-1.36-14.809-2.213-9.363-2.798-20.421-16.268-30.112-17.532-27.404-3.574-34.91-.851-50.569-3.404-8.691-1.417-23.643-17.87-32.447-18.043-8.681-.17-15.838-3-15.838-3v14.064Z"
     fill="#801b1b"
     id="path6" />
  <path
     d="M.5,126.043v18.915s6.489,2.646,8.931,3.043c3.868,.629,12.001,.178,15.574,1.787,4.616,2.078,10.337,10.72,15.064,12.532,4.828,1.85,15.573,1.198,20.681,2,3.909,.614,11.186,3.068,15.064,3.851,4.334,.875,13.234-.044,17.617,.532,2.185,.287,6.63,.726,8.681,1.532,1.203,.473,3.166,3.269,4.34,3.809,2.661,1.223,8.475,2.339,11.234,3.319,6.713,2.385,19.312,8.579,26.298,9.979,3.88,.777,12.15,2.456,15.83,1,7.745-3.064,18.241-5.36,24.511-6.133,7.792-.96,23.6,.858,31.404,0,20.085-2.208,39.021-13.761,39.021-13.761v-20.191s-12.522,12.092-17.83,14.553c-4.429,2.054-14.419,3.619-19.149,4.83-4.342,1.111-9.191,4.021-17.106,4.362-4.726,.203-14.235,.202-18.894,1.021-7.745,1.362-15.269,3.915-28.545,5.106-7.176,.644-19.159-3.028-25.976-5.362-8.202-2.809-13.528-9.712-19.166-11.271-29.717-8.218-38.052-6.54-51.879-9.346-2.932-.595-12.8-1.677-12.561-4.66,.34-4.255-7.018-8.021-9.957-9.957-3.96-2.609-12.875-7.032-17.617-7.032-5.787,0-15.569-4.457-15.569-4.457Z"
     fill="#e59191"
     id="path8" />
  <path
     d="M14.588,135.234c3.985,1.026,9.812,1.306,13.532,3.064,4.561,2.156,12.501,14.025,17.106,16.085,6.438,2.88,24.297,2.763,31.269,3.83,5.069,.776,15.319,1.844,20.255,3.234,3.012,.848,8.563,3.916,11.574,4.766,2.323,.655,7.325,2.554,9.532,3.532,2.242,.993,5.462,3.039,7.66,4.128,1.887,.934,6.155,3.434,8.17,4.043,4.02,1.213,11.633,3.465,15.83,3.617,18.689,.676,28.841-6.37,38.638-6.979,4.679-.291,14.091,1.738,18.723,1.021,5.35-.828,15.082-6.064,20.255-7.66,2.426-.748,7.543-1.372,9.872-2.383,3.832-1.664,11.112-6.133,13.957-9.191,1.495-1.607,3.787-7.66,3.787-7.66v12.596s-10.668,6.042-14.34,7.83c-4.165,2.027-12.568,6.044-17.021,7.319-4.056,1.162-12.468,2.334-16.681,2.553-4.425,.23-13.281-1.14-17.702-.851-9.795,.641-28.83,7.368-38.638,6.979-6.332-.251-18.732-3.867-24.511-6.468-2.798-1.26-7.442-5.489-10.213-6.809-2.333-1.111-7.377-2.393-9.872-3.064-6.828-1.837-20.612-5.061-27.574-6.298-7.941-1.41-23.952-4.608-32-4.085-6.588,.428-15.847-12.479-19.609-14.468-4.651-2.46-8.771-1.486-13.923-2.553-3.172-.657-12.165-1.021-12.165-1.021v-7.84s9.713,1.608,14.088,2.734Z"
     fill="#fff"
     id="path10" />
</svg>
